<?xml version="1.0" encoding="UTF-8" standalone="no"?>
<!DOCTYPE svg PUBLIC "-//W3C//DTD SVG 1.1//EN" "http://www.w3.org/Graphics/SVG/1.1/DTD/svg11.dtd">
<svg width="100%" height="100%" viewBox="0 0 25 25" version="1.1" xmlns="http://www.w3.org/2000/svg" xmlns:xlink="http://www.w3.org/1999/xlink" xml:space="preserve" xmlns:serif="http://www.serif.com/" style="fill-rule:evenodd;clip-rule:evenodd;stroke-linecap:round;stroke-miterlimit:1.5;">
    <g transform="matrix(1,0,0,1,0,-33)">
        <g id="paint-bucket" transform="matrix(1,0,0,1,0,33)">
            <rect x="0" y="0" width="25" height="25" style="fill:none;"/>
            <g transform="matrix(1,0,0,1,-7.10543e-15,-33)">
                <path d="M13.592,40C13.592,40 20.181,40.648 22,45.204C23.426,48.776 22.865,56.053 21,56C19.069,55.945 22.164,53.215 20,52.5C18.756,52.089 16.712,54.9 16,54C14.212,51.739 23.337,50.244 18.642,45.05C17.061,43.301 13.592,40 13.592,40Z" style="stroke:black;stroke-width:1px;"/>
            </g>
            <g transform="matrix(-0.58437,-0.58437,0.710696,-0.710696,-10.2752,52.0705)">
                <path d="M26,48.5L9.5,48.5L13.625,34.5L21.875,34.5L26,48.5Z" style="fill:white;stroke:black;stroke-width:1.09px;stroke-linejoin:round;"/>
            </g>
            <g transform="matrix(1,0,0,1,0,-33)">
                <path d="M12,41.5C12,41.5 2.153,41.114 2,40C1.868,39.037 7,38.5 7,38.5" style="fill:none;stroke:black;stroke-width:1px;stroke-linejoin:round;"/>
            </g>
        </g>
    </g>
</svg>
