<?xml version="1.0" encoding="UTF-8" standalone="no"?>
<!DOCTYPE svg PUBLIC "-//W3C//DTD SVG 1.1//EN" "http://www.w3.org/Graphics/SVG/1.1/DTD/svg11.dtd">
<svg width="100%" height="100%" viewBox="0 0 25 25" version="1.1" xmlns="http://www.w3.org/2000/svg" xmlns:xlink="http://www.w3.org/1999/xlink" xml:space="preserve" xmlns:serif="http://www.serif.com/" style="fill-rule:evenodd;clip-rule:evenodd;stroke-linecap:round;stroke-linejoin:round;stroke-miterlimit:1.5;">
    <g transform="matrix(1,0,0,1,-28,-33)">
        <g id="paint-brush" transform="matrix(1,0,0,1,28,33)">
            <rect x="0" y="0" width="25" height="25" style="fill:none;"/>
            <clipPath id="_clip1">
                <rect x="0" y="0" width="25" height="25"/>
            </clipPath>
            <g clip-path="url(#_clip1)">
                <g transform="matrix(1,0,0,1.10564,-27.5,-39.2083)">
                    <path d="M43.5,49.666C43.5,47.918 41.932,46.5 40,44.507C38.068,46.5 36.5,47.918 36.5,49.666L36.5,60.334C36.5,62.082 38.068,63.5 40,63.5C41.932,63.5 43.5,62.082 43.5,60.334L43.5,49.666Z" style="fill:white;"/>
                    <clipPath id="_clip2">
                        <path d="M43.5,49.666C43.5,47.918 41.932,46.5 40,44.507C38.068,46.5 36.5,47.918 36.5,49.666L36.5,60.334C36.5,62.082 38.068,63.5 40,63.5C41.932,63.5 43.5,62.082 43.5,60.334L43.5,49.666Z"/>
                    </clipPath>
                    <g clip-path="url(#_clip2)">
                        <g transform="matrix(1.48741,0,0,1.34529,-12.5845,-5.0715)">
                            <circle cx="35.353" cy="36.853" r="2.353" style="stroke:black;stroke-width:0.67px;"/>
                        </g>
                    </g>
                    <path d="M43.5,49.666C43.5,47.918 41.932,46.5 40,44.507C38.068,46.5 36.5,47.918 36.5,49.666L36.5,60.334C36.5,62.082 38.068,63.5 40,63.5C41.932,63.5 43.5,62.082 43.5,60.334L43.5,49.666Z" style="fill:none;stroke:black;stroke-width:0.95px;"/>
                </g>
                <g transform="matrix(0.900642,0,0,0.900642,-25.4189,-30.6704)">
                    <path d="M46.543,35.164C41.622,37.205 44.977,40.405 45.204,42.102C45.431,43.799 43.814,45.204 42.102,45.204C40.39,45.204 39.001,43.814 39,42.102C38.998,38.916 40.537,35.238 46.543,35.164Z" style="stroke:black;stroke-width:1.11px;"/>
                </g>
            </g>
        </g>
    </g>
</svg>
